
<svg id="a" xmlns="http://www.w3.org/2000/svg" viewBox="0 0 2288 440"><defs><style>.c{fill:#fff;}</style></defs><g id="b"><g><path class="c" d="M234,0c10.84,1.65,21.77,2.84,32.5,5.03,85.19,17.37,154.35,88.53,169.58,174.21,17.84,100.39-30.92,195.89-122.81,240.12-23.64,11.38-48.74,17.68-74.9,19.74-1.8,.14-3.58,.59-5.37,.9h-26c-7.23-.95-14.47-1.8-21.68-2.87C97.01,423.98,22.98,353.92,5.11,266.39c-2.25-11.02-3.43-22.26-5.11-33.39v-26c.3-1.6,.64-3.19,.88-4.8,1.37-9.37,2.26-18.84,4.15-28.11C22.46,88.24,93.03,19.41,179.43,3.88c8.8-1.58,17.71-2.6,26.57-3.88h28Zm125.19,347.54c32.93-35.04,50.12-76.62,51.31-124.93-1.93,3.4-3.06,7.05-5.48,9.37-7.44,7.16-18.97,5.03-24.1-4.22-6.62-11.92-13.11-23.92-19.49-35.98-1.53-2.89-2.94-4.03-6.55-3.27-12.85,2.72-25.74,5.46-38.75,7.12-6.72,.86-11.92,3.11-17.16,7.35-10.08,8.16-20.77,15.58-31.38,23.05-2.85,2.01-3.33,3.83-2.21,7,3.48,9.87,6.92,19.78,9.9,29.81,2.23,7.5,6,13.46,12.05,18.65,9.71,8.32,18.66,17.52,27.96,26.39,13.74-7.05,27.18-13.97,40.64-20.86,7.37-3.77,14.33-3.07,19.35,1.86,4.95,4.87,5.8,11.39,2.35,18.87-6.12,13.27-12.29,26.52-18.43,39.79Zm-289-9.17c-4.6-9.33-9.21-18.64-13.78-27.98-3.22-6.59-2.44-13.62,1.94-18.09,4.85-4.94,12.16-6.15,18.84-2.79,12.63,6.35,25.23,12.75,37.72,19.36,3.03,1.61,4.82,1.26,7.25-1.14,8.64-8.55,17.35-17.05,26.46-25.08,4.38-3.87,7.07-8.08,8.69-13.73,3.84-13.39,8.42-26.57,12.73-39.9-14.56-10.92-28.89-21.66-44.47-33.34-2.44,0-6.97,.59-11.29-.11-12.8-2.07-25.54-4.55-38.25-7.12-2.99-.61-4.46,.06-5.88,2.73-6.55,12.34-13.29,24.58-20,36.83-3,5.47-7.71,8.11-13.92,8.01-2.05-.03-4.1-.36-6.69-.6,4.57,38.09,17.46,72.53,40.66,102.94ZM173.4,36.98c-28.08,8.06-53.55,20.8-75.77,39.69,2.09-.45,3.99-1.31,5.92-2.08,6.85-2.73,12.99-.87,16.93,5.3,3.41,5.34,3.63,10.85,.67,16.56-6.58,12.7-12.97,25.49-19.62,38.15-1.3,2.47-1.2,3.95,.79,6,11.12,11.45,22.08,23.05,32.51,33.99,4.08-.55,7.61-1.39,11.14-1.44,13.15-.18,26.31-.16,39.47-.05,2.74,.02,4.09-.68,4.95-3.5,3.53-11.61,7.46-23.1,11-34.7,.58-1.9,.42-4.29-.17-6.22-3.45-11.28-7.28-22.46-10.65-33.76-.96-3.21-2.49-4-5.63-3.97-13.99,.13-27.98,.18-41.96-.06-11.2-.19-18.02-12.18-12.33-21.76,1.8-3.04,4.51-5.82,7.41-7.87,11.66-8.27,23.55-16.2,35.36-24.26Zm90.47-2.07c1.17,1.02,2.3,2.09,3.52,3.06,11.08,8.82,22.17,17.62,33.25,26.43,5.87,4.67,7.74,10.56,5.47,17.18-2.07,6.03-6.95,9.28-14.4,9.33-13.66,.09-27.33,.22-40.99-.02-3.56-.06-4.82,1.2-5.79,4.38-3.39,11.14-7.18,22.15-10.59,33.28-.64,2.08-.75,4.62-.2,6.72,3.07,11.75,6.53,23.39,9.6,35.14,.76,2.92,1.89,4.11,5.02,4.08,14.16-.11,28.33,.11,42.49-.04,1.91-.02,4.32-.92,5.64-2.27,10.16-10.34,20.05-20.94,30.17-31.32,2.23-2.28,2.42-4.08,.92-6.9-6.48-12.2-12.72-24.52-19.01-36.81-3.65-7.12-3.02-14.02,1.63-18.99,4.91-5.23,13.48-6.8,20.26-3.54,7.34,3.54,14.61,7.24,21.93,10.84,1.03,.51,2.17,.8,3.25,1.19l.54-1.18c-26.24-25.05-56.75-42.51-92.71-50.58Zm-46.99,328.53c5.01-3.19,9.65-6.52,14.63-9.25,9.61-5.28,19.4-10.23,29.14-15.28,2.02-1.05,3.36-1.97,2.85-4.9-2.33-13.43-4.27-26.92-6.48-40.37-.21-1.27-1.04-2.76-2.06-3.51-11.5-8.49-23.13-16.81-34.64-25.3-2.11-1.56-3.62-2.16-6.06-.36-11.76,8.7-23.69,17.16-35.49,25.82-.9,.66-1.54,2.09-1.72,3.26-2.09,12.96-3.88,25.98-6.2,38.9-.71,3.93,.63,5.62,3.82,7.28,10.91,5.68,21.73,11.52,32.5,17.46,3.58,1.97,6.9,4.42,9.72,6.26Zm.29,14.99c-2.91,5.69-7.55,6.93-12.71,7.67-13.66,1.96-27.27,4.32-40.94,6.26-3.47,.49-4.12,2.43-4.61,5.27-.57,3.28,1.83,3.53,3.78,4.13,35.74,11.05,71.65,11.82,107.7,1.6,2.39-.68,5.31-.57,4.81-4.78-.45-3.82-1.48-5.89-5.72-6.45-11.38-1.48-22.7-3.4-34.03-5.21-6.57-1.05-13.38-1.6-18.28-8.49Zm61.4-11.76c20.1-2.43,24.59,10.43,26.17,27.14,11.53-7.42,21.91-14.11,33.27-21.42-15.25-10.03-14.93-22.08-5.95-36.13-15.01,11.63-26.92,7.11-38.15-6.68,.35,8.86,4.33,15.49,.73,22.75-3.43,6.9-9.13,10.59-16.08,14.35Zm-136.54-37.55c-11.53,12.33-23.46,17.46-38.5,4.76,2.55,7.21,6.16,12.79,6.01,18.26-.16,5.53-4.05,10.95-6.83,17.7,8.62,5.67,18.52,12.19,28.7,18.89,2.59-6.94,.17-15.15,7.23-18.8,5.7-2.95,12.11-4.51,19.19-7.04-17.73-5.36-23.07-16.36-15.79-33.76ZM247.25,61.32c-4.98-4.1-10.47-7.3-14.12-11.96-4.37-5.58-1.05-12.07,1.39-18.5-2.26-.4-3.99-.96-5.73-.99-6.82-.1-13.65,.04-20.48-.07-4.65-.08-6.22,1.67-4.92,6.35,2.29,8.25-.87,14.64-7.45,19.61-2.16,1.63-4.36,3.22-7.23,5.34,7.7,1.7,15.94-1.96,20.84,4.26,4.1,5.21,6.34,11.87,9,17.09,2.73-5.36,4.94-12.02,9.04-17.17,4.8-6.03,12.85-2.52,19.66-3.94Zm-56.94,142.78c4.47,4.9,11.2,9.23,12.96,15.07,1.8,5.97-1.27,13.4-2.29,20.74,11.44-12.35,23.54-12.18,35.85-.08-1.05-4.54-2.28-8.13-3.49-11.72-2.55-7.54-1.05-12.2,5.44-16.86,2.98-2.14,5.96-4.28,9.64-6.92-7.84-1.25-16.01,2.03-20.92-4.17-4.15-5.24-6.38-12-8.98-17.14-2.72,5.3-5,12.12-9.23,17.36-4.87,6.04-13.08,2.57-18.98,3.72Zm207.56-54.92c-4.45-8.85-8.65-17.21-13.25-26.35-10.19,9.73-18.38,1.67-27.98-1.55,11.68,14.42,7.14,26.48-4.58,36.48,7.18,0,14.98-2.06,20.58,.58,5.6,2.64,9,9.96,13.18,15.01,1.42-8.57-.42-19.13,12.04-24.17ZM75.08,121.39c-7.55,2.44-13.51,4.34-19.44,6.34-.86,.29-1.94,.94-2.24,1.69-4.45,11.01-14.88,20.32-9.4,34.2,1.25,3.17,1.01,6.93,1.45,10.42l1.07,.94c5.13-17.48,16.3-22,33.17-15.69-12.36-11.64-16.68-23.65-4.62-37.9Z"/><path class="c" d="M2288,266h-8.74c0-2,0-3.76,0-5.51,0-14.32,.04-28.65-.03-42.97-.02-3.49,0-7.04-.62-10.45-2.32-12.97-10.15-20.51-22.43-21.94-14.94-1.75-27.99,4.5-32.99,17-2.28,5.7-3.16,12.23-3.39,18.44-.5,13.14-.15,26.31-.15,39.47,0,1.8,0,3.61,0,5.7h-8.56c0-1.66,0-3.41,0-5.15,0-14.49,.02-28.98-.02-43.47,0-2.99,.04-6.03-.44-8.97-2.59-15.82-12.14-23.5-28.52-23.16-16.19,.34-28.51,11.07-30.03,27.03-.87,9.09-.6,18.29-.71,27.44-.1,8.64-.02,17.28-.02,26.25h-8v-87.36h7.52v16.28c8.44-12.08,20.04-17.42,34.18-17.3,14.5,.12,25.76,5.92,31.74,20.19,.59-.46,1.04-.65,1.22-.99,9.55-17.87,31.03-22.47,47.69-17.24,12.34,3.87,18.83,13.05,21.25,25.43,.28,1.44,.7,2.86,1.05,4.29v57Z"/><path class="c" d="M1514.21,265.87h-8.03v-117.42c4.68-1.45,7.38,.03,9.88,4.44,15.44,27.22,31.22,54.25,46.89,81.33,.82,1.41,1.7,2.78,2.93,4.77,1.19-1.96,2.13-3.46,3.02-5,15.67-27.09,31.44-54.12,46.9-81.33,2.4-4.22,5.01-5.75,9.82-4.17v117.31h-8.09v-98.41l-1.18-.44c-.86,1.4-1.76,2.79-2.58,4.21-14.53,25.06-29.04,50.12-43.57,75.18-3.38,5.82-5.53,5.8-8.95-.07-14.47-24.9-28.93-49.8-43.41-74.7-.88-1.52-1.84-2.99-3.63-4.25v98.54Z"/><path class="c" d="M1065.52,141.18h8.12v56.12c9.7-14.03,22-20.54,37.57-19.93,11.93,.47,22.38,4.75,30.56,13.81,16.13,17.87,14.77,48.7-3.06,64.7-9.86,8.85-21.65,12.03-34.74,10.48-13.01-1.54-23.03-7.91-30.7-18.91v18.33h-7.74v-124.59Zm8.06,80.65c-.15,21.98,14.31,37.15,35.51,37.24,20.5,.08,35.43-15.53,35.42-37.03-.01-21.24-14.78-36.9-34.96-37.08-21.08-.18-35.82,14.92-35.97,36.86Z"/><path class="c" d="M2084,265.85h-7.46v-12.97c-.8,0-1.28-.12-1.38,.02-10.32,15.03-31.48,16.04-44.84,11.7-11.73-3.81-18.09-13.3-17.22-25.06,.82-11.08,8.31-19.09,20.4-21.36,4.07-.76,8.26-1.06,12.41-1.13,9.81-.16,19.63-.05,29.37-.05,4.64-18-5.62-31.73-23.75-32.15-11.76-.27-18.48,1.93-32.05,10.62-1.25-1.79-2.51-3.61-3.74-5.36,12.56-12.79,39.8-16.72,54.82-8.18,8,4.55,12.97,11.72,13.24,20.57,.63,20.94,.2,41.91,.2,63.35Zm-8.47-42.02c-11.43,0-22.87-.07-34.31,.06-2.46,.03-4.97,.54-7.36,1.21-7.39,2.07-11.46,6.88-12.17,14.09-.79,8.02,2.32,14.68,9.4,17.64,11.95,5,23.76,4.44,34.69-3.05,10.72-7.34,11.74-18.05,9.74-29.95Z"/><path class="c" d="M1973.62,218.34c-12.46,2.44-24.67,4.85-36.89,7.24-12.2,2.38-24.39,4.75-37.09,7.23,3.07,11.81,10.01,19.74,20.79,23.54,15.97,5.63,30.76,3.48,43.6-9.5,.63,.88,1.19,1.72,1.81,2.51,.71,.91,1.47,1.78,2.52,3.03-5.6,7.17-13,11.02-21.61,13.06-23.44,5.53-46.58-5.47-54.06-26.43-8.57-24,.69-53.66,29.53-60.54,26.29-6.28,50.4,12.15,51.39,39.88Zm-8.77-4.8c-.57-17.57-18.27-30.77-37.43-28.49-18.93,2.26-32.61,21.61-28.65,41.41,21.93-4.29,43.87-8.58,66.09-12.92Z"/><path class="c" d="M1265.82,265.82h-7.77v-14.55c-2.44,2.7-4.05,4.73-5.91,6.49-11.62,11.03-36.15,12.17-48.83,2.33-14.18-11-11.24-33.59,5.52-39.95,5.32-2.02,11.33-2.75,17.07-3.01,10.3-.47,20.64-.13,30.89-.13,4.48-18.1-5.84-31.7-23.99-32.18-11.78-.31-22.23,3.26-31.81,10.84-1.38-1.93-2.6-3.63-4.07-5.69,6.83-6.48,15.08-9.66,23.91-11.5,8.44-1.75,16.93-1.8,25.2,.86,12.65,4.07,19.17,13.48,19.59,26.18,.67,19.95,.18,39.93,.18,60.31Zm-8.79-42.25c-9.97,0-19.78-.12-29.57,.06-3.8,.07-7.67,.44-11.36,1.31-8.25,1.95-12.73,7.25-13.13,14.84-.46,8.62,3.53,14.94,11.38,18.01,24.52,9.57,46.39-7.46,42.69-34.22Z"/><path class="c" d="M837.01,221.36c.22-25.46,19.18-44.33,44.33-44.1,25.55,.23,43.99,19.54,43.69,45.77-.29,25.42-19.38,44.15-44.61,43.78-25.54-.37-43.64-19.32-43.42-45.45Zm8.74,.64c-.02,22.07,14.42,37.08,35.69,37.07,20.17,0,34.97-15.63,35.01-36.95,.04-21.44-14.92-37.15-35.39-37.16-20.7,0-35.28,15.29-35.31,37.03Z"/><path class="c" d="M797.1,221.9c.04,25.95-18.52,44.9-43.97,44.91-25.49,0-44.09-18.91-44.07-44.83,.02-25.6,18.54-44.54,43.73-44.73,25.34-.19,44.26,18.88,44.3,44.64Zm-79.29-.02c-.07,22.09,14.36,37.17,35.58,37.19,20.2,.02,35.04-15.52,35.18-36.84,.14-21.37-14.89-37.22-35.33-37.27-20.73-.05-35.36,15.19-35.43,36.92Z"/><path class="c" d="M1670.63,178.37q8.41-.83,11.57,6.24c9.98,22.32,19.96,44.65,29.96,66.96,.65,1.46,1.42,2.87,2.44,4.92,6.61-14.73,12.94-28.83,19.27-42.93,4.36-9.71,9.12-19.27,12.89-29.21,2.15-5.66,5.2-7.56,11.17-5.89-.64,1.58-1.24,3.24-1.96,4.84-13.96,30.93-27.87,61.89-41.99,92.74-2.33,5.1-5.04,10.24-8.58,14.54-9.5,11.56-29.28,11.93-39.97,.86,1.15-1.81,2.35-3.72,2.92-4.61,6.25,1.83,11.85,4.17,17.66,4.98,5.76,.81,10.98-1.96,14.05-6.96,3.46-5.64,6.31-11.68,9.04-17.73,.58-1.29-.2-3.48-.89-5.01-11.77-26.26-23.62-52.49-35.45-78.72-.67-1.49-1.28-3.01-2.14-5.03Z"/><path class="c" d="M1866.41,148.33v7.38h-42.13v109.98h-8.72v-109.79h-42.21v-7.56h93.06Z"/><path class="c" d="M1014.84,255.02c1.06,1.71,2.09,3.38,3.36,5.42-8.1,6.81-17.26,7.59-26.77,5.13-8.38-2.16-13.17-8.1-14.57-16.61-.46-2.78-.68-5.63-.69-8.44-.06-16.5-.03-32.99-.03-49.49v-5.75h-15.77v-7.14h15.68v-19.01h8.59v18.74h27.83v7.1h-27.34c-.16,2.12-.35,3.57-.36,5.01-.02,16.66-.02,33.33-.01,49.99,0,6.8,.09,13.91,7.16,17.41,7.16,3.54,14.53,2.85,21.36-1.62,.39-.26,.85-.41,1.55-.74Z"/><path class="c" d="M1332.51,265.8h-7.96v-124.62h7.96v124.62Z"/><path class="c" d="M595.24,206.25h74.68v7.64h-66.48v51.85h-8.2v-59.49Z"/><path class="c" d="M1392.33,141.08h7.58v124.63h-7.58v-124.63Z"/><path class="c" d="M595.05,155.5v-7.19h75.01v7.19h-75.01Z"/></g></g></svg>
