<?xml version="1.0" encoding="UTF-8" standalone="no"?>
<svg
   xmlns:dc="http://purl.org/dc/elements/1.1/"
   xmlns:cc="http://creativecommons.org/ns#"
   xmlns:rdf="http://www.w3.org/1999/02/22-rdf-syntax-ns#"
   xmlns:svg="http://www.w3.org/2000/svg"
   xmlns="http://www.w3.org/2000/svg"
   id="svg4"
   xml:space="preserve"
   viewBox="75 290 1024 168"
   y="0px"
   x="0px"
   version="1.1"><metadata
     id="metadata10"><rdf:RDF><cc:Work
         rdf:about=""><dc:format>image/svg+xml</dc:format><dc:type
           rdf:resource="http://purl.org/dc/dcmitype/StillImage" /></cc:Work></rdf:RDF></metadata><defs
     id="defs8" /><path
     id="path2"
     d="m210.18 313.66l-0.03 0.01c-1.57-0.01-3.19 0-3.59 0.02s-1.17 0.06-1.71 0.1-1.38 0.11-1.87 0.15c-0.5 0.05-1.3 0.13-1.78 0.19s-1.27 0.16-1.75 0.23-1.36 0.21-1.96 0.31c-0.59 0.1-1.45 0.26-1.89 0.35-0.45 0.09-1.13 0.23-1.51 0.32-0.37 0.08-1.14 0.26-1.69 0.4-0.55 0.13-1.55 0.4-2.23 0.6-0.67 0.19-1.63 0.48-2.12 0.64-0.5 0.16-1.21 0.39-1.59 0.52-0.38 0.14-1.05 0.38-1.5 0.54-0.45 0.17-1.2 0.46-1.67 0.65s-1.22 0.51-1.67 0.7c-0.44 0.2-1.19 0.53-1.66 0.75s-1.26 0.6-1.75 0.85c-0.5 0.25-1.24 0.63-1.65 0.85s-1.16 0.64-1.67 0.93c-0.5 0.29-1.28 0.75-1.72 1.02-0.45 0.27-1.1 0.68-1.46 0.92-0.36 0.23-1.01 0.66-1.45 0.96-0.43 0.3-1.02 0.71-1.31 0.92-0.29 0.2-0.91 0.66-1.38 1.02-0.47 0.35-1.23 0.95-1.68 1.32-0.46 0.36-1.16 0.95-1.57 1.29-0.4 0.35-0.95 0.84-1.23 1.09-0.28 0.24-0.92 0.84-1.43 1.33-0.52 0.48-1.57 1.53-2.35 2.33s-1.73 1.8-2.1 2.22c-0.38 0.42-0.95 1.06-1.26 1.42s-0.92 1.11-1.37 1.66c-0.44 0.55-1.05 1.34-1.36 1.75-0.31 0.42-0.75 1.02-0.98 1.34s-0.61 0.87-0.86 1.23c-0.24 0.35-0.69 1.04-1 1.52s-0.8 1.27-1.08 1.75c-0.29 0.48-0.73 1.23-0.97 1.67-0.25 0.44-0.7 1.27-1.01 1.86s-0.79 1.55-1.07 2.15c-0.29 0.59-0.66 1.4-0.84 1.81-0.18 0.4-0.49 1.13-0.7 1.62-0.2 0.49-0.54 1.36-0.76 1.94-0.22 0.57-0.64 1.74-0.92 2.59-0.28 0.84-0.64 1.96-0.79 2.48-0.15 0.51-0.4 1.4-0.54 1.96-0.15 0.56-0.38 1.47-0.5 2.01-0.13 0.55-0.34 1.5-0.46 2.13-0.12 0.62-0.3 1.58-0.39 2.13-0.1 0.55-0.22 1.34-0.28 1.75-0.05 0.42-0.15 1.14-0.2 1.61-0.06 0.47-0.14 1.15-0.17 1.52-0.04 0.37-0.09 1.03-0.13 1.46-0.03 0.44-0.08 1.17-0.11 1.63-0.04 0.55-0.06 1.83-0.06 3.81s0.02 3.27 0.06 3.82c0.03 0.46 0.08 1.19 0.11 1.63 0.04 0.43 0.09 1.09 0.13 1.45 0.03 0.37 0.11 1.06 0.17 1.53 0.05 0.47 0.15 1.19 0.2 1.6 0.06 0.42 0.19 1.2 0.28 1.75s0.27 1.52 0.39 2.14c0.13 0.63 0.33 1.58 0.46 2.13 0.12 0.54 0.35 1.45 0.5 2.01 0.14 0.56 0.39 1.44 0.54 1.96s0.44 1.43 0.63 2.02c0.2 0.6 0.52 1.53 0.71 2.07 0.2 0.54 0.52 1.38 0.71 1.87 0.2 0.5 0.53 1.29 0.73 1.78 0.21 0.48 0.52 1.18 0.69 1.56s0.52 1.12 0.78 1.65c0.26 0.52 0.67 1.34 0.92 1.81s0.63 1.17 0.85 1.56 0.57 1.01 0.79 1.38 0.59 0.99 0.83 1.38c0.25 0.39 0.71 1.11 1.04 1.6 0.32 0.49 0.85 1.26 1.16 1.71 0.32 0.45 0.86 1.18 1.19 1.63 0.34 0.45 0.89 1.15 1.21 1.56 0.33 0.41 0.79 0.98 1.03 1.27 0.25 0.29 0.7 0.81 1.01 1.17 0.31 0.35 0.81 0.91 1.11 1.23 0.29 0.32 1.11 1.17 1.8 1.89 0.7 0.71 1.69 1.7 2.21 2.19s1.17 1.1 1.45 1.34c0.28 0.25 0.84 0.74 1.25 1.1 0.41 0.35 1.12 0.94 1.56 1.3 0.45 0.36 1.2 0.94 1.67 1.3 0.47 0.35 1.19 0.88 1.59 1.17 0.41 0.29 1.22 0.85 1.8 1.23 0.58 0.39 1.33 0.88 1.67 1.09 0.33 0.21 0.89 0.54 1.23 0.75 0.34 0.2 1 0.58 1.47 0.85 0.47 0.26 1.33 0.73 1.9 1.03 0.58 0.3 1.54 0.78 2.13 1.06 0.59 0.29 1.46 0.69 1.93 0.89 0.48 0.21 1.31 0.56 1.85 0.78 0.55 0.23 1.37 0.54 1.82 0.71s1.14 0.42 1.55 0.56c0.4 0.14 1.11 0.37 1.58 0.53 0.47 0.15 1.41 0.43 2.08 0.62 0.68 0.2 1.69 0.47 2.24 0.6 0.55 0.14 1.38 0.33 1.85 0.44 0.47 0.1 1.19 0.25 1.61 0.33 0.41 0.08 1.13 0.22 1.6 0.3s1.17 0.19 1.55 0.25c0.37 0.06 1.13 0.16 1.68 0.23s1.49 0.17 2.09 0.23c0.6 0.05 1.5 0.13 2 0.16 0.51 0.04 1.42 0.09 2.04 0.11 0.72 0.04 2.04 0.04 3.65 0.03 1.59-0.01 2.9-0.05 3.53-0.09 0.55-0.03 1.23-0.08 1.52-0.11 0.28-0.02 0.82-0.07 1.19-0.1 0.36-0.04 0.99-0.1 1.39-0.15s1.14-0.14 1.63-0.21 1.35-0.2 1.89-0.29c0.55-0.09 1.48-0.26 2.07-0.38 0.58-0.11 1.39-0.28 1.79-0.37 0.41-0.09 1.15-0.27 1.65-0.4 0.51-0.13 1.26-0.32 1.67-0.44 0.41-0.11 1.12-0.32 1.58-0.46 0.46-0.13 1.25-0.39 1.76-0.55 0.5-0.17 1.33-0.46 1.85-0.65 0.51-0.19 1.4-0.53 1.97-0.75 0.57-0.23 1.4-0.58 1.84-0.77s1.1-0.48 1.47-0.65c0.36-0.17 1.2-0.57 1.85-0.9 0.66-0.33 1.49-0.76 1.86-0.96 0.37-0.19 0.97-0.53 1.33-0.73 0.37-0.21 1.05-0.61 1.5-0.88 0.46-0.28 1.15-0.7 1.53-0.94 0.37-0.25 1.03-0.68 1.45-0.96 0.43-0.29 1.06-0.73 1.42-0.98s1.02-0.74 1.48-1.09c0.46-0.34 1.25-0.95 1.76-1.36 0.5-0.4 1.25-1.03 1.66-1.38 0.42-0.36 0.98-0.85 1.25-1.1 0.28-0.24 0.93-0.85 1.46-1.35 0.52-0.49 1.53-1.49 2.23-2.21 0.7-0.73 1.51-1.57 1.8-1.88 0.28-0.31 0.77-0.86 1.08-1.21 0.31-0.36 0.77-0.88 1.01-1.17s0.71-0.86 1.03-1.27c0.33-0.41 0.87-1.11 1.21-1.56s0.87-1.18 1.19-1.63 0.84-1.22 1.17-1.71c0.32-0.49 0.79-1.21 1.03-1.6s0.65-1.08 0.92-1.53c0.26-0.44 0.69-1.19 0.95-1.66s0.76-1.44 1.12-2.15 0.81-1.63 1-2.04c0.19-0.42 0.51-1.12 0.7-1.57 0.2-0.45 0.51-1.2 0.7-1.67s0.5-1.26 0.68-1.75c0.19-0.5 0.5-1.38 0.7-1.96 0.19-0.58 0.5-1.51 0.66-2.06 0.17-0.55 0.43-1.42 0.57-1.94s0.37-1.39 0.5-1.94 0.34-1.44 0.45-1.98c0.12-0.54 0.3-1.44 0.4-2s0.25-1.46 0.33-1.98c0.09-0.53 0.21-1.41 0.28-1.96s0.17-1.48 0.23-2.07c0.05-0.58 0.13-1.48 0.16-2 0.04-0.51 0.09-1.35 0.11-1.86 0.02-0.5 0.04-1.84 0.04-2.98 0-1.13-0.02-2.47-0.04-2.98-0.02-0.5-0.07-1.34-0.11-1.85-0.03-0.52-0.11-1.42-0.16-2.01-0.06-0.58-0.16-1.51-0.23-2.06s-0.19-1.43-0.28-1.96c-0.08-0.53-0.23-1.42-0.33-1.98s-0.28-1.46-0.4-2c-0.11-0.54-0.32-1.43-0.45-1.98s-0.36-1.43-0.5-1.94c-0.14-0.52-0.4-1.39-0.57-1.94-0.16-0.55-0.47-1.48-0.66-2.06-0.2-0.58-0.51-1.46-0.7-1.96-0.18-0.5-0.49-1.29-0.68-1.76s-0.5-1.22-0.7-1.66c-0.19-0.45-0.46-1.05-0.59-1.34s-0.45-0.95-0.71-1.48c-0.25-0.53-0.66-1.32-0.89-1.77-0.24-0.45-0.62-1.15-0.85-1.56-0.23-0.42-0.63-1.1-0.88-1.53-0.25-0.42-0.65-1.07-0.88-1.44-0.22-0.36-0.66-1.04-0.96-1.5-0.31-0.45-0.81-1.2-1.13-1.64-0.32-0.45-0.85-1.18-1.19-1.63-0.34-0.46-0.88-1.16-1.21-1.56-0.32-0.41-0.79-0.98-1.03-1.27s-0.7-0.82-1.01-1.17c-0.31-0.36-0.81-0.92-1.12-1.25-0.31-0.34-1.12-1.18-1.79-1.87-0.68-0.7-1.68-1.69-2.22-2.2s-1.27-1.19-1.63-1.51c-0.36-0.31-0.94-0.82-1.29-1.12s-0.98-0.82-1.39-1.15c-0.42-0.33-1.08-0.85-1.48-1.16-0.41-0.31-1.17-0.87-1.69-1.24-0.53-0.38-1.39-0.97-1.92-1.32s-1.31-0.85-1.73-1.12c-0.43-0.26-1.12-0.68-1.55-0.93-0.42-0.25-1.21-0.7-1.75-0.99-0.53-0.3-1.53-0.81-2.21-1.15-0.67-0.34-1.53-0.75-1.89-0.92-0.37-0.17-1.04-0.47-1.48-0.66-0.45-0.2-1.32-0.56-1.94-0.8-0.62-0.25-1.5-0.59-1.96-0.75-0.46-0.17-1.25-0.44-1.75-0.61-0.51-0.17-1.3-0.42-1.76-0.56-0.46-0.13-1.17-0.34-1.58-0.46-0.41-0.11-1.17-0.31-1.67-0.43-0.51-0.13-1.3-0.32-1.76-0.42-0.45-0.1-1.25-0.27-1.78-0.38-0.53-0.1-1.29-0.24-1.7-0.31-0.4-0.07-1.18-0.19-1.73-0.27-0.51-0.08-1.36-0.2-1.86-0.26-0.49-0.05-1.2-0.13-1.56-0.16-0.37-0.04-0.9-0.08-1.19-0.11-0.28-0.02-0.97-0.07-1.52-0.11-0.71-0.04-1.83-0.07-3.86-0.08zm-0.93 9.38c1.27-0.01 2.55 0.01 2.86 0.03 0.31 0.03 0.75 0.07 0.98 0.11 0.23 0.03 0.62 0.11 0.87 0.17 0.24 0.06 0.44 0.12 0.44 0.14s-0.2 0.56-0.46 1.2c-0.25 0.63-0.49 1.29-0.52 1.45s-0.07 0.52-0.08 0.81c-0.02 0.32-0.01 0.66 0.02 0.9 0.03 0.2 0.08 0.51 0.13 0.69 0.04 0.17 0.13 0.44 0.2 0.58 0.06 0.15 0.19 0.4 0.28 0.56 0.09 0.15 0.28 0.41 0.42 0.56 0.15 0.16 0.39 0.37 0.55 0.47 0.15 0.11 1.15 0.73 2.21 1.4l1.93 1.2-2.41 0.02c-2.05 0.02-2.45 0.04-2.67 0.09-0.14 0.04-0.37 0.12-0.52 0.17-0.15 0.06-0.37 0.15-0.5 0.22-0.12 0.06-0.35 0.2-0.52 0.31-0.16 0.11-0.4 0.31-0.54 0.43-0.14 0.13-0.36 0.37-0.49 0.54s-0.31 0.44-0.4 0.62c-0.11 0.2-0.43 1.11-0.94 2.67-0.43 1.29-0.8 2.37-0.81 2.38-0.02 0.02-0.38-1.03-0.81-2.33-0.44-1.31-0.85-2.48-0.92-2.62-0.06-0.14-0.21-0.38-0.32-0.55-0.12-0.16-0.36-0.44-0.55-0.63-0.19-0.18-0.51-0.44-0.72-0.57-0.2-0.14-0.52-0.31-0.7-0.39-0.19-0.07-0.49-0.18-0.68-0.23l-0.33-0.09-2.4-0.02-2.41-0.02 1.61-1.15c1.27-0.91 1.67-1.21 1.92-1.48 0.18-0.19 0.45-0.52 0.6-0.73 0.15-0.22 0.38-0.59 0.51-0.83 0.12-0.25 0.28-0.61 0.35-0.82 0.07-0.2 0.16-0.54 0.19-0.74 0.04-0.21 0.07-0.55 0.07-0.77 0-0.33-0.06-0.67-0.29-1.84-0.16-0.79-0.27-1.46-0.26-1.47 0.02-0.02 0.22-0.08 0.45-0.14 0.22-0.05 0.63-0.13 0.9-0.17 0.27-0.03 0.71-0.08 0.98-0.1 0.27-0.01 1.52-0.03 2.78-0.03zm14.57 1.4l0.15 0.02c0.08 0.02 0.5 0.13 0.93 0.24 0.43 0.12 1.22 0.34 1.76 0.5s1.34 0.41 1.78 0.56c0.43 0.14 1.09 0.37 1.46 0.5 0.36 0.13 1.02 0.38 1.46 0.54 0.43 0.17 1.07 0.43 1.41 0.57s1.07 0.45 1.63 0.69c0.55 0.25 1.7 0.8 2.56 1.23s1.95 1 2.42 1.26 1.17 0.66 1.55 0.88c0.37 0.23 1.03 0.63 1.45 0.89 0.43 0.27 1.22 0.78 1.76 1.14s1.22 0.83 1.52 1.04 0.94 0.68 1.42 1.04 1.3 0.99 1.81 1.41c0.52 0.41 1.34 1.09 1.83 1.52 0.5 0.42 1.14 0.98 1.42 1.24 0.29 0.26 0.68 0.61 0.86 0.79l0.34 0.31 0.03 0.23c0.02 0.13 0.07 0.31 0.11 0.41l0.07 0.17-4.53-2.26c-3.95-1.98-4.58-2.28-4.87-2.34-0.18-0.04-0.59-0.08-0.92-0.09-0.35-0.02-0.75-0.01-1 0.02-0.22 0.03-0.6 0.1-0.85 0.16-0.24 0.06-0.57 0.16-0.74 0.23-0.16 0.06-0.42 0.18-0.56 0.25s-0.4 0.22-0.56 0.33c-0.17 0.12-0.44 0.33-0.61 0.49-0.16 0.15-0.4 0.42-0.53 0.59-0.12 0.17-0.31 0.47-0.41 0.65-0.09 0.19-0.22 0.5-0.29 0.71-0.07 0.2-0.15 0.51-0.19 0.68-0.03 0.17-0.07 0.48-0.09 0.67-0.02 0.2-0.01 0.54 0.02 0.77s0.08 0.56 0.13 0.73c0.04 0.18 0.12 0.42 0.17 0.55 0.05 0.12 1.68 3.29 3.61 7.03 1.94 3.74 3.53 6.84 3.54 6.88 0.02 0.06-1.2 1.36-4.72 5.04-2.6 2.73-5.13 5.36-5.62 5.84l-0.88 0.89h-7.98c-4.38 0-7.97-0.01-7.97-0.01 0-0.01-0.84-3.07-1.87-6.8l-1.87-6.78 2.11-6.57 2.11-6.57h7.65c6.55 0 7.71-0.01 8.01-0.06 0.19-0.03 0.48-0.11 0.64-0.16 0.16-0.06 0.44-0.17 0.61-0.26 0.17-0.08 0.42-0.23 0.56-0.32 0.14-0.1 0.42-0.34 0.63-0.55s0.45-0.5 0.55-0.65 0.25-0.41 0.33-0.58 0.19-0.49 0.24-0.7c0.06-0.21 0.12-0.59 0.15-0.83 0.03-0.26 0.04-0.62 0.02-0.85-0.01-0.22-0.06-0.59-0.11-0.81-0.05-0.23-0.16-0.59-0.24-0.8-0.09-0.21-0.25-0.51-0.35-0.68-0.11-0.16-0.31-0.41-0.45-0.55s-0.41-0.35-0.61-0.48c-0.19-0.13-2.97-2.32-6.17-4.88l-5.82-4.65v-0.46zm-28.25 0.47c0.02 0 0.03 0 0.02 0.01s-2.95 2.01-6.54 4.45c-5.11 3.46-6.57 4.47-6.75 4.66-0.12 0.13-0.34 0.39-0.48 0.57-0.15 0.19-0.37 0.5-0.5 0.7s-0.34 0.57-0.46 0.83c-0.13 0.26-0.28 0.64-0.34 0.84-0.06 0.21-0.12 0.55-0.15 0.76-0.04 0.3-0.04 0.48 0 0.74 0.03 0.2 0.09 0.46 0.13 0.6 0.05 0.13 0.18 0.41 0.3 0.63 0.11 0.22 0.3 0.54 0.42 0.71 0.12 0.18 0.33 0.47 0.48 0.64 0.15 0.18 0.38 0.43 0.52 0.56 0.15 0.13 0.43 0.34 0.63 0.48 0.21 0.13 0.52 0.3 0.7 0.37s0.49 0.15 0.69 0.19c0.31 0.05 1.35 0.06 8 0.06h7.64l0.04 0.14c0.03 0.07 0.98 3.03 2.11 6.56l2.07 6.44-2.07 6.43c-1.13 3.54-2.08 6.49-2.11 6.57l-0.04 0.13-7.78 0.01-7.79 0.01-0.31 0.1c-0.17 0.05-0.47 0.17-0.66 0.26s-0.44 0.25-0.57 0.35c-0.12 0.11-0.24 0.19-0.24 0.19-0.01 0-0.03-0.07-0.05-0.16-0.01-0.09-0.1-0.27-0.19-0.41-0.08-0.14-0.4-0.5-0.7-0.81s-2.73-2.85-5.41-5.65c-2.67-2.8-4.87-5.11-4.88-5.13-0.01-0.03 1.57-3.12 3.51-6.88 1.95-3.76 3.58-6.94 3.64-7.08 0.05-0.13 0.14-0.42 0.2-0.64 0.06-0.25 0.11-0.59 0.12-0.88 0.02-0.35 0.01-0.62-0.04-0.96-0.04-0.26-0.13-0.64-0.19-0.85-0.07-0.21-0.2-0.53-0.29-0.71s-0.26-0.46-0.36-0.61c-0.11-0.15-0.29-0.38-0.41-0.52s-0.31-0.35-0.42-0.48c-0.12-0.12-0.32-0.3-0.46-0.39-0.13-0.09-0.37-0.23-0.54-0.31-0.16-0.07-0.44-0.17-0.63-0.22-0.24-0.07-0.5-0.1-0.95-0.12-0.4-0.01-0.73 0-0.94 0.03-0.17 0.03-0.47 0.1-0.65 0.16-0.19 0.05-1.02 0.44-1.86 0.85l-1.56 0.78c-0.03 0.01-0.03 0.01 0-0.02 0.02-0.03 0.3-0.27 0.62-0.54s0.92-0.76 1.32-1.08 1.08-0.84 1.52-1.17c0.44-0.32 1.02-0.75 1.29-0.94 0.28-0.2 0.92-0.64 1.44-0.99 0.52-0.34 1.24-0.81 1.61-1.04 0.36-0.23 0.97-0.59 1.33-0.81 0.37-0.22 0.95-0.56 1.29-0.76 0.35-0.19 1-0.55 1.46-0.8s1.39-0.72 2.07-1.06c0.67-0.33 1.67-0.81 2.21-1.05s1.35-0.6 1.81-0.8 1.27-0.53 1.8-0.73c0.52-0.21 1.39-0.55 1.93-0.74 0.54-0.2 1.62-0.57 2.4-0.83 0.78-0.25 1.54-0.5 1.69-0.55s0.29-0.09 0.31-0.09zm-32.31 27.19c0.01 0-0.44 0.91-1 2.03-0.55 1.11-1.05 2.16-1.1 2.32-0.06 0.16-0.12 0.42-0.16 0.59-0.03 0.16-0.06 0.51-0.06 0.79 0 0.29 0.03 0.66 0.06 0.85 0.04 0.19 0.13 0.5 0.2 0.7 0.06 0.2 0.21 0.55 0.33 0.78 0.11 0.23 0.33 0.61 0.49 0.84 0.15 0.22 0.9 1.15 1.68 2.06 0.78 0.9 1.4 1.65 1.38 1.66s-1.02-0.21-2.21-0.47-2.32-0.5-2.52-0.52c-0.24-0.03-0.5-0.03-0.75 0-0.22 0.02-0.56 0.08-0.76 0.14s-0.5 0.18-0.68 0.26c-0.17 0.08-0.47 0.25-0.67 0.39-0.2 0.13-0.48 0.34-0.62 0.47-0.13 0.12-0.38 0.36-0.54 0.53s-0.35 0.39-0.42 0.48-0.55 1.01-1.07 2.04c-0.52 1.04-0.94 1.86-0.95 1.84 0-0.03-0.1-0.97-0.23-2.1-0.12-1.14-0.23-2.13-0.23-2.21 0-0.09-0.03-0.27-0.06-0.4-0.04-0.14-0.11-0.35-0.17-0.46-0.05-0.12-0.24-0.37-0.4-0.56l-0.3-0.35 0.16-0.52c0.09-0.29 0.26-0.82 0.38-1.18 0.13-0.35 0.37-0.97 0.53-1.37 0.16-0.41 0.46-1.1 0.66-1.55 0.21-0.44 0.6-1.24 0.87-1.77s0.74-1.41 1.05-1.96l0.56-1 0.71-0.03c0.39-0.01 0.85-0.05 1.02-0.09 0.17-0.03 0.43-0.1 0.57-0.15 0.15-0.05 1.16-0.53 2.26-1.08 1.09-0.55 1.99-1 1.99-1zm90.15 0.04c0.01 0 0.86 0.42 1.89 0.94 1.04 0.51 2.03 0.99 2.2 1.06 0.18 0.07 0.48 0.17 0.68 0.22 0.28 0.06 0.48 0.08 0.92 0.08 0.46 0 0.63-0.02 0.95-0.11 0.22-0.05 0.55-0.17 0.72-0.25 0.18-0.08 0.45-0.23 0.61-0.33s0.42-0.3 0.59-0.45c0.16-0.14 0.31-0.25 0.31-0.24 0.01 0.01 0.16 0.23 0.33 0.49 0.17 0.27 0.45 0.72 0.62 1 0.18 0.29 0.49 0.84 0.7 1.21 0.22 0.38 0.6 1.11 0.86 1.63 0.25 0.52 0.61 1.3 0.8 1.73 0.19 0.44 0.46 1.14 0.62 1.56 0.15 0.42 0.26 0.78 0.24 0.79-0.02 0.02-0.15 0.07-0.29 0.11-0.13 0.04-0.37 0.14-0.53 0.21-0.15 0.08-0.38 0.21-0.5 0.29s-0.35 0.27-0.51 0.43-0.39 0.43-0.51 0.61c-0.12 0.17-0.31 0.49-0.41 0.71-0.1 0.21-0.25 0.59-0.33 0.84l-0.15 0.45-0.23 2.32c-0.13 1.27-0.24 2.34-0.25 2.38-0.01 0.03-0.49-0.86-1.05-1.99-0.57-1.12-1.12-2.17-1.23-2.33-0.12-0.15-0.32-0.4-0.46-0.54s-0.38-0.34-0.53-0.45c-0.15-0.1-0.4-0.26-0.56-0.34s-0.41-0.18-0.54-0.23c-0.14-0.04-0.4-0.11-0.59-0.15-0.22-0.05-0.53-0.07-0.91-0.07-0.33 0-0.71 0.02-0.86 0.05-0.15 0.02-1.21 0.25-2.35 0.51-1.14 0.25-2.09 0.45-2.11 0.44s0.59-0.74 1.36-1.64c0.77-0.89 1.46-1.71 1.53-1.81 0.08-0.11 0.21-0.31 0.31-0.47 0.1-0.15 0.27-0.46 0.38-0.69 0.11-0.22 0.25-0.55 0.31-0.72 0.06-0.18 0.14-0.46 0.18-0.63 0.03-0.17 0.07-0.5 0.09-0.74 0.01-0.31 0-0.56-0.05-0.83-0.04-0.21-0.12-0.54-0.18-0.73s-0.56-1.24-1.1-2.33c-0.55-1.1-0.98-1.99-0.97-1.99zm193.31 2.03v11.23h-4.91v14.47h4.91v22.14h15.23v-22.14h4.86v-3.08-11.39h-4.86v-11.23h-15.23zm24.78 0v47.78h15.17v-0.07c1.4 0.5 2.94 0.88 4.7 0.88 6.08 0 10.87-2.58 13.8-6.32 2.93-3.75 4.12-8.45 4.12-12.95 0-6.95-2.37-11.99-5.85-15.03-3.47-3.04-7.73-4.03-11.31-4.03-2.11 0-3.88 0.48-5.46 1.11v-11.37h-15.17zm86.3 0v47.78h15.17v-3.07-44.71h-15.17zm21.63 0v47.78h15.17v-3.07-44.71h-15.17zm133.19 3.83v15.6h8.32v28.35h15.6v-28.35h8.31v-15.6h-3.07-29.16zm-386.02 0.06v43.89h15.54v-15.28h11.4v-13.33h-11.4v-0.82h12.21v-3.07-11.39h-27.75zm292.87 0v43.89h15.6v-8.27l2.05 5.63 0.8 2.64h11.82l1.01-2.51 2.09-5.76v8.27h15.6v-43.89h-16.99l-0.74 2.02-6.78 18.55-7.51-20.57h-16.95zm251.04 6.3c-4.38 0.02-7.57 1.72-9.74 3.43-2.2-1.99-5.07-3.41-8.46-3.41h-0.01c-2.17 0-4.01 0.47-5.61 1.07v-0.1h-15.22v36.66h15.22v-21.01c0-0.27 0.68-1.24 2.11-1.24 0.93 0 1.15 0.23 1.34 0.44 0.2 0.21 0.28 0.58 0.28 0.59v21.16h15.22v-20.95c0.03-0.26 0.77-1.24 2.11-1.24 0.93 0 1.16 0.23 1.35 0.44s0.28 0.58 0.28 0.59v21.16h15.22v-23.7c0-6.44-5.1-13.45-13.18-13.87h-0.01-0.01c-0.3-0.02-0.6-0.02-0.89-0.02zm-493.29 0.07c-10.53 0-19.11 8.65-19.11 19.17 0 10.56 8.59 19.16 19.11 19.16 10.56 0 19.17-8.6 19.17-19.16 0-10.52-8.59-19.17-19.17-19.17zm42.09 0c-10.53 0-19.11 8.65-19.11 19.17 0 10.56 8.6 19.16 19.11 19.16 10.57 0 19.17-8.6 19.17-19.16 0-10.52-8.59-19.17-19.17-19.17zm111.32 0c-3.58 0-7.83 1-11.3 4.04-3.46 3.04-5.81 8.07-5.81 15.02 0 4.49 1.18 9.19 4.09 12.94 2.92 3.75 7.7 6.33 13.78 6.33 1.76 0 3.3-0.38 4.7-0.88v0.07h15.22v-36.6h-15.22v0.18c-1.58-0.63-3.35-1.1-5.46-1.1zm233.46 0c-10.53 0-19.11 8.65-19.11 19.17 0 10.56 8.59 19.16 19.11 19.16 8.01 0 14.92-4.94 17.76-11.97l0.33-0.83h0.2l0.19-0.97 0.98-2.42h-0.58c0.15-0.98 0.29-1.96 0.29-2.97 0-1.29-0.13-2.49-0.31-3.62l-0.01-0.06-0.01-0.07c-1.8-8.79-9.55-15.42-18.84-15.42zm40.21 0c-3.58 0-7.83 1-11.3 4.04-3.46 3.04-5.82 8.07-5.82 15.02 0 4.49 1.19 9.19 4.1 12.94 2.92 3.75 7.7 6.33 13.77 6.33 1.77 0 3.31-0.38 4.71-0.88v0.07h15.22v-36.6h-15.22v0.18c-1.58-0.63-3.36-1.1-5.46-1.1zm-133.33 0.92l12.65 31.04-7.14 17.55h16.09l19.9-48.59h-16.09l-0.78 1.9-3.95 9.6-4.18-11.5h-16.5zm-461.72 6.01c0.01 0 0.36 1.05 0.79 2.35 0.51 1.54 0.84 2.46 0.96 2.69 0.1 0.2 0.28 0.48 0.39 0.63 0.12 0.15 0.34 0.41 0.51 0.56 0.16 0.16 0.46 0.39 0.65 0.51 0.2 0.13 0.5 0.3 0.69 0.38 0.18 0.07 0.48 0.18 0.65 0.23l0.32 0.09 2.44 0.02 2.44 0.02-1.61 1.15c-0.88 0.63-1.71 1.21-1.85 1.29-0.13 0.08-0.38 0.25-0.55 0.39-0.17 0.13-0.43 0.4-0.58 0.59-0.15 0.18-0.35 0.5-0.46 0.69-0.1 0.2-0.22 0.51-0.28 0.69-0.06 0.19-0.13 0.52-0.15 0.73-0.03 0.26-0.03 0.52-0.01 0.74 0.02 0.18 0.07 0.45 0.11 0.6 0.04 0.14 0.1 0.32 0.13 0.39 0.04 0.06 0.39 1.09 0.79 2.28 0.64 1.93 0.71 2.16 0.62 2.1-0.06-0.03-0.8-0.56-1.66-1.18-1.28-0.92-1.64-1.15-2.05-1.35-0.28-0.13-0.68-0.3-0.9-0.38s-0.54-0.18-0.71-0.21c-0.18-0.04-0.48-0.07-0.66-0.07s-0.47 0.03-0.64 0.06c-0.16 0.03-0.47 0.12-0.68 0.19-0.2 0.07-0.63 0.26-0.96 0.41-0.51 0.25-0.78 0.43-2.19 1.43-0.88 0.64-1.61 1.15-1.61 1.14-0.01-0.01 0.3-0.97 0.69-2.13 0.53-1.58 0.73-2.24 0.78-2.56 0.06-0.34 0.07-0.58 0.05-1.08-0.02-0.45-0.05-0.76-0.11-0.99-0.05-0.19-0.14-0.5-0.22-0.69-0.07-0.18-0.24-0.5-0.37-0.7-0.14-0.21-0.38-0.49-0.53-0.63-0.16-0.15-0.4-0.33-0.54-0.41-0.13-0.08-0.98-0.68-1.88-1.32l-1.64-1.17 2.46-0.02 2.45-0.02 0.37-0.11c0.21-0.07 0.53-0.19 0.72-0.28s0.49-0.27 0.66-0.38c0.17-0.12 0.44-0.35 0.6-0.5 0.15-0.15 0.37-0.4 0.48-0.55 0.11-0.14 0.27-0.4 0.36-0.58 0.08-0.17 0.51-1.37 0.94-2.67s0.79-2.37 0.79-2.37zm-46.86 2.33c0.04 0 3.41 0.63 7.51 1.4 6.5 1.22 7.5 1.4 7.85 1.4 0.22 0 0.59-0.02 0.83-0.04 0.24-0.03 0.58-0.09 0.77-0.13 0.18-0.05 0.44-0.13 0.58-0.19 0.13-0.05 0.25-0.1 0.25-0.09 0.01 0.01 0.08 0.13 0.16 0.28s0.24 0.41 0.36 0.58c0.12 0.16 0.39 0.48 0.6 0.69 0.33 0.34 1.17 0.97 6.42 4.8 3.32 2.42 6.03 4.42 6.03 4.44 0 0.03-1.05 3.3-2.33 7.28l-2.34 7.24v0.94l-0.12 0.03c-0.08 0.01-0.23 0.1-0.34 0.21-0.11 0.1-0.27 0.19-0.35 0.21-0.12 0.03-1.19 1.04-5.51 5.17-2.95 2.82-5.38 5.14-5.4 5.14-0.02 0.01-3.14-1.59-6.93-3.55-5.35-2.77-6.99-3.6-7.33-3.71-0.24-0.08-0.6-0.17-0.81-0.2-0.22-0.03-0.55-0.04-0.79-0.02-0.23 0.01-0.6 0.07-0.82 0.12-0.22 0.06-0.53 0.16-0.68 0.22-0.16 0.06-0.43 0.18-0.59 0.26s-0.44 0.24-0.62 0.36c-0.18 0.11-0.43 0.28-0.55 0.36-0.11 0.09-0.3 0.28-0.42 0.42-0.12 0.15-0.3 0.42-0.41 0.6s-0.27 0.51-0.36 0.73c-0.08 0.22-0.19 0.59-0.25 0.83-0.06 0.32-0.09 0.59-0.09 1 0 0.38 0.02 0.69 0.07 0.93 0.04 0.21 0.12 0.51 0.18 0.67 0.06 0.17 1.39 2.87 2.96 6 1.57 3.14 2.84 5.71 2.83 5.71s-0.33-0.43-0.72-0.95-0.98-1.34-1.31-1.83c-0.33-0.48-0.84-1.23-1.12-1.66-0.28-0.44-0.71-1.12-0.95-1.51s-0.68-1.14-0.99-1.66c-0.3-0.53-0.77-1.38-1.04-1.88-0.27-0.51-0.75-1.44-1.07-2.08-0.31-0.65-0.74-1.55-0.94-2.01-0.21-0.46-0.51-1.15-0.68-1.54-0.16-0.39-0.45-1.1-0.64-1.58-0.2-0.49-0.5-1.29-0.68-1.8-0.19-0.5-0.52-1.47-0.74-2.15-0.23-0.67-0.56-1.77-0.75-2.43-0.19-0.67-0.46-1.67-0.6-2.22s-0.36-1.46-0.48-2.02c-0.13-0.56-0.32-1.47-0.42-2.02-0.11-0.55-0.27-1.45-0.36-2s-0.19-1.2-0.22-1.44c-0.04-0.24-0.12-0.81-0.17-1.27-0.06-0.46-0.11-0.88-0.11-0.93 0-0.07 0.02-0.09 0.11-0.09 0.06 0 0.32 0.09 0.58 0.21l0.46 0.22 0.64 0.02c0.35 0.01 0.83-0.01 1.06-0.04 0.23-0.02 0.57-0.08 0.76-0.13 0.18-0.05 0.49-0.16 0.69-0.24 0.2-0.09 0.52-0.26 0.71-0.39 0.2-0.13 0.49-0.36 0.66-0.51 0.17-0.16 0.43-0.45 0.58-0.64 0.22-0.29 0.99-1.7 3.8-6.94 2.16-4.03 3.55-6.57 3.58-6.57v-0.01zm91.82 0.02c0.09 0 0.52 0.79 3.63 6.58 1.94 3.62 3.61 6.69 3.71 6.83 0.1 0.13 0.33 0.39 0.52 0.58s0.46 0.42 0.59 0.53c0.14 0.1 0.4 0.26 0.57 0.35 0.18 0.09 0.45 0.22 0.61 0.28s0.45 0.14 0.66 0.18c0.26 0.06 0.61 0.1 1.17 0.11l0.79 0.03 0.46-0.16c0.25-0.08 0.62-0.23 0.83-0.33s0.52-0.28 0.7-0.4 0.47-0.35 0.64-0.51 0.39-0.4 0.5-0.55c0.11-0.14 0.27-0.4 0.36-0.59 0.09-0.2 0.18-0.47 0.22-0.67 0.03-0.18 0.16-1.26 0.29-2.39l0.22-2.07 0.01 2.18c0 1.19-0.02 2.55-0.04 3.02s-0.07 1.22-0.11 1.68c-0.03 0.46-0.09 1.13-0.12 1.48-0.04 0.36-0.12 1.09-0.19 1.63s-0.21 1.49-0.31 2.11c-0.11 0.63-0.27 1.55-0.37 2.05s-0.25 1.21-0.34 1.57c-0.08 0.37-0.25 1.07-0.38 1.57-0.12 0.49-0.35 1.32-0.5 1.83-0.15 0.52-0.41 1.37-0.59 1.9-0.17 0.53-0.43 1.3-0.58 1.71s-0.43 1.15-0.62 1.63-0.48 1.19-0.64 1.56c-0.16 0.38-0.43 1-0.6 1.38-0.17 0.37-0.48 1.03-0.69 1.46-0.2 0.42-0.56 1.13-0.8 1.58-0.23 0.45-0.57 1.07-0.74 1.38s-0.48 0.83-0.67 1.16-0.57 0.96-0.83 1.38c-0.27 0.42-0.73 1.14-1.03 1.58-0.29 0.45-0.72 1.07-0.93 1.38-0.22 0.31-0.67 0.93-1.01 1.38-0.33 0.44-0.88 1.15-1.21 1.56s-0.87 1.07-1.21 1.46c-0.33 0.39-0.85 0.98-1.15 1.31-0.3 0.34-0.69 0.76-0.87 0.94s-0.3 0.3-0.28 0.25 1.53-3.28 3.35-7.19c1.83-3.91 3.36-7.22 3.4-7.36 0.05-0.14 0.12-0.4 0.16-0.59 0.05-0.23 0.07-0.51 0.07-0.93 0-0.41-0.02-0.72-0.07-0.94-0.04-0.19-0.13-0.5-0.19-0.71-0.07-0.2-0.21-0.52-0.3-0.7-0.1-0.19-0.28-0.48-0.41-0.66-0.13-0.17-0.38-0.44-0.56-0.61-0.17-0.16-0.45-0.39-0.62-0.49-0.16-0.11-0.43-0.27-0.59-0.34-0.17-0.08-0.45-0.19-0.63-0.24-0.18-0.06-0.49-0.14-0.68-0.17-0.19-0.04-0.59-0.07-0.89-0.07-0.38 0-0.66 0.03-0.96 0.09-0.22 0.05-0.55 0.14-0.72 0.21-0.18 0.07-3.32 1.68-7 3.58-3.67 1.9-6.76 3.49-6.85 3.54l-0.17 0.09-5.41-5.17c-4.16-3.98-5.42-5.17-5.5-5.17-0.07 0-0.2-0.08-0.34-0.21-0.13-0.11-0.29-0.21-0.35-0.23l-0.12-0.02-0.02-0.45c-0.02-0.24-0.07-0.57-0.11-0.73-0.04-0.15-0.14-0.39-0.22-0.52-0.11-0.18-0.68-1.83-2.24-6.53-1.76-5.27-2.09-6.3-2.04-6.34 0.03-0.03 2.75-2.02 6.04-4.42l5.98-4.37 0.75-0.75 0.75-0.74h0.96l0.96-0.01 7.4-1.39c4.07-0.76 7.45-1.39 7.5-1.38zm123.01 5.94c2.21 0 3.95 1.79 3.95 3.95 0 2.23-1.71 3.94-3.95 3.94-2.16 0-3.94-1.74-3.94-3.94 0-2.13 1.81-3.95 3.94-3.95zm42.09 0c2.21 0 3.95 1.79 3.95 3.95 0 2.23-1.71 3.94-3.95 3.94-2.15 0-3.94-1.74-3.94-3.94 0-2.13 1.81-3.95 3.94-3.95zm71.47 0.06c1.5 0 2.04 0.37 2.49 0.91 0.44 0.53 0.8 1.51 0.8 2.87 0 2.15-1.58 3.73-3.29 3.73-1.72 0-3.3-1.58-3.3-3.73 0-2.23 1.58-3.78 3.3-3.78zm41.26 0c1.71 0 3.29 1.55 3.29 3.78 0 2.15-1.58 3.73-3.29 3.73-1.8 0-3.36-1.58-3.36-3.73 0-1.36 0.36-2.33 0.81-2.87 0.45-0.53 1.01-0.91 2.55-0.91zm273.66 0c1.72 0 3.3 1.55 3.3 3.78 0 2.15-1.58 3.73-3.3 3.73-1.79 0-3.35-1.58-3.35-3.73 0-1.36 0.36-2.33 0.81-2.87 0.45-0.53 1.01-0.91 2.54-0.91zm-596.91 17.9l0.12 0.08c0.07 0.05 2.81 2.06 6.1 4.46l5.97 4.36h0.23c0.21 0 0.23 0.01 0.25 0.09 0.01 0.06 0.54 3.4 1.17 7.44s1.15 7.38 1.15 7.42c-0.01 0.06-1.52 0.86-6.79 3.58-3.72 1.93-6.78 3.54-6.79 3.57-0.02 0.04-0.05 0.14-0.09 0.23s-0.15 0.28-0.25 0.41c-0.1 0.14-0.37 0.45-0.6 0.7s-0.43 0.45-0.45 0.45-0.12-0.14-0.22-0.32-0.28-0.43-0.39-0.56c-0.11-0.14-0.34-0.35-0.52-0.48-0.21-0.16-2.54-1.43-7.1-3.87-5.22-2.79-6.78-3.65-6.78-3.71 0-0.04 0.51-3.38 1.14-7.42s1.16-7.38 1.17-7.44c0.02-0.08 0.05-0.09 0.25-0.09h0.23l1.08-0.78c0.59-0.44 2.43-1.78 4.09-3 1.66-1.21 3.92-2.86 5.02-3.67l2.01-1.45zm-23.94 21.12s-0.22 1-0.49 2.22-0.51 2.38-0.53 2.59c-0.03 0.24-0.03 0.5 0 0.75 0.02 0.21 0.08 0.52 0.13 0.69 0.04 0.17 0.19 0.54 0.33 0.81 0.13 0.28 0.35 0.64 0.47 0.8s0.37 0.45 0.57 0.66c0.2 0.2 0.49 0.47 0.65 0.61 0.23 0.18 0.7 0.44 2.16 1.17 1.02 0.51 1.86 0.93 1.85 0.94-0.01 0-0.87 0.2-1.93 0.43-1.05 0.23-2.07 0.46-2.25 0.51-0.18 0.04-0.47 0.13-0.63 0.19-0.16 0.05-0.44 0.17-0.63 0.26s-0.51 0.28-0.71 0.41c-0.2 0.14-0.49 0.37-0.64 0.51-0.16 0.14-0.38 0.38-0.49 0.54-0.12 0.15-0.29 0.44-0.38 0.63s-0.18 0.45-0.21 0.56c-0.02 0.11-0.06 0.39-0.08 0.6-0.03 0.22-0.14 1.04-0.25 1.83s-0.21 1.44-0.23 1.46c-0.01 0.01-0.37-0.18-0.8-0.43-0.44-0.25-1.2-0.7-1.71-0.99-0.5-0.3-1.29-0.78-1.75-1.06-0.46-0.29-1.2-0.77-1.64-1.08-0.45-0.3-0.96-0.65-1.13-0.77-0.17-0.13-0.46-0.34-0.65-0.48-0.18-0.13-0.5-0.38-0.71-0.54-0.2-0.16-0.59-0.47-0.85-0.68-0.26-0.22-0.51-0.42-0.54-0.45-0.05-0.05 0.07-0.18 0.79-0.9 0.46-0.47 0.94-0.98 1.05-1.14s0.29-0.45 0.39-0.65c0.1-0.19 0.23-0.53 0.3-0.75 0.07-0.21 0.15-0.53 0.18-0.7 0.03-0.18 0.06-0.56 0.05-0.86 0-0.3-0.02-0.66-0.05-0.81s-0.11-0.45-0.17-0.66c-0.08-0.23-0.5-1.13-1.11-2.34-0.53-1.08-0.97-1.98-0.97-1.99s0.86 0.41 1.91 0.94 2.03 1.01 2.18 1.06c0.14 0.06 0.41 0.15 0.6 0.2 0.21 0.06 0.52 0.09 0.85 0.11 0.37 0.01 0.63 0 0.9-0.05 0.21-0.03 0.53-0.11 0.71-0.17s0.54-0.21 0.79-0.33 0.66-0.35 0.9-0.51c0.25-0.17 1.13-0.89 2.1-1.72 0.91-0.78 1.66-1.42 1.67-1.42zm48.37 0.5c0.02 0 0.82 0.68 1.78 1.51 0.97 0.83 1.87 1.6 2.01 1.7 0.14 0.11 0.41 0.28 0.61 0.39 0.2 0.1 0.53 0.24 0.73 0.31 0.21 0.07 0.54 0.16 0.75 0.19 0.2 0.04 0.61 0.07 0.9 0.07 0.31 0 0.68-0.03 0.87-0.07 0.19-0.03 0.51-0.12 0.7-0.19 0.2-0.07 1.24-0.57 2.32-1.1l1.95-0.98-0.98 1.95c-0.54 1.08-1.03 2.12-1.1 2.31-0.07 0.2-0.16 0.52-0.19 0.71-0.04 0.19-0.07 0.56-0.07 0.87 0 0.29 0.03 0.7 0.07 0.9 0.03 0.2 0.12 0.54 0.19 0.75 0.07 0.2 0.21 0.53 0.31 0.73 0.11 0.2 0.28 0.48 0.39 0.63 0.11 0.14 0.78 0.84 1.48 1.55s1.27 1.31 1.27 1.32c0 0.02-0.5 0.39-1.11 0.82-0.62 0.44-1.45 1.03-1.87 1.31-0.41 0.29-1.03 0.71-1.37 0.94-0.35 0.23-0.94 0.62-1.32 0.86s-1.01 0.63-1.42 0.87c-0.4 0.24-1.06 0.63-1.48 0.86-0.41 0.23-0.96 0.52-1.22 0.65s-0.48 0.24-0.48 0.23c-0.01-0.01-0.23-0.97-0.48-2.14-0.26-1.17-0.53-2.3-0.6-2.5-0.07-0.21-0.21-0.55-0.31-0.76-0.09-0.21-0.29-0.55-0.42-0.75-0.14-0.2-0.36-0.48-0.48-0.63-0.13-0.14-0.37-0.35-0.54-0.48s-0.42-0.29-0.55-0.36c-0.14-0.07-0.35-0.15-0.46-0.19-0.12-0.04-0.36-0.09-0.54-0.11-0.19-0.02-1.2-0.13-2.26-0.25-1.05-0.11-1.99-0.22-2.08-0.23l-0.17-0.03 1.86-0.93 1.86-0.93 0.4-0.53c0.21-0.3 0.49-0.69 0.62-0.87s0.37-0.55 0.52-0.82c0.16-0.26 0.37-0.66 0.47-0.87 0.09-0.22 0.22-0.56 0.28-0.77 0.1-0.33 0.11-0.45 0.12-0.96v-0.58l-0.49-2.18c-0.27-1.2-0.49-2.19-0.49-2.2s0.01-0.02 0.02-0.02zm-24.41 15.46c0.01 0.02 0.13 0.17 0.26 0.35 0.13 0.17 0.39 0.45 0.56 0.63 0.18 0.17 0.45 0.39 0.59 0.49 0.15 0.09 0.47 0.27 0.73 0.39 0.25 0.13 0.64 0.28 0.86 0.35 0.32 0.11 1.77 0.34 7.82 1.29 4.08 0.63 7.43 1.16 7.44 1.18s0.12 0.65 0.25 1.39c0.13 0.81 0.21 1.38 0.19 1.4s-0.41 0.15-0.86 0.29c-0.44 0.14-1.11 0.34-1.48 0.44-0.36 0.1-1.08 0.29-1.59 0.41-0.51 0.13-1.32 0.32-1.79 0.42-0.48 0.1-1.24 0.25-1.7 0.34-0.46 0.08-1.2 0.2-1.65 0.27s-1.22 0.17-1.71 0.23-1.2 0.13-1.56 0.16c-0.37 0.04-1.13 0.1-1.69 0.14-0.82 0.06-1.58 0.07-3.8 0.07-1.83 0-3.05-0.01-3.58-0.05-0.45-0.03-1.27-0.09-1.82-0.14-0.55-0.04-1.4-0.13-1.9-0.18-0.49-0.06-1.15-0.14-1.48-0.19-0.32-0.05-0.96-0.15-1.43-0.23s-1.2-0.21-1.61-0.29-1-0.21-1.31-0.28c-0.31-0.06-0.97-0.22-1.48-0.35-0.5-0.12-1.33-0.35-1.85-0.5s-1.42-0.43-2.01-0.62c-0.58-0.2-1.09-0.37-1.12-0.39-0.05-0.03-0.02-0.23 0.16-1.17 0.13-0.63 0.24-1.15 0.25-1.17s3.42-0.56 7.57-1.2c4.15-0.65 7.66-1.19 7.8-1.2 0.13-0.01 0.36-0.05 0.5-0.09 0.13-0.03 0.42-0.14 0.63-0.25 0.21-0.1 0.52-0.29 0.69-0.43 0.17-0.13 0.37-0.33 0.46-0.43 0.09-0.11 0.23-0.31 0.32-0.46 0.09-0.14 0.19-0.35 0.24-0.45 0.04-0.11 0.09-0.19 0.1-0.17z"
     fill="#282120" /></svg>
